<?xml version="1.0" encoding="UTF-8"?>
<!DOCTYPE svg PUBLIC "-//W3C//DTD SVG 1.1//EN" "http://www.w3.org/Graphics/SVG/1.1/DTD/svg11.dtd">
<!-- Creator: CorelDRAW 2019 (64-Bit) -->
<svg xmlns="http://www.w3.org/2000/svg" xml:space="preserve" width="100%" height="100%" version="1.1" style="shape-rendering:geometricPrecision; text-rendering:geometricPrecision; image-rendering:optimizeQuality; fill-rule:evenodd; clip-rule:evenodd"
viewBox="0 0 21590 27940"
 xmlns:xlink="http://www.w3.org/1999/xlink">
 <defs>
  <style type="text/css">
   <![CDATA[
    .fil0 {fill:#08979C;fill-rule:nonzero}
    .fil1 {fill:#F9BA48;fill-rule:nonzero}
   ]]>
  </style>
 </defs>
 <g id="Layer_x0020_1">
  <metadata id="CorelCorpID_0Corel-Layer"/>
  <path class="fil0" d="M16069.84 10313.34c-391.34,-303.83 -892.7,-397.68 -1353.11,-282.8 115,-460.29 21.16,-961.64 -282.67,-1352.98 211.85,-347.46 170.05,-807.29 -130.26,-1107.61 -300.32,-300.31 -760.16,-342.13 -1107.64,-130.29 -567.61,-440.73 -1367.9,-440.63 -1935.6,0.01 -287.54,-175.1 -650.6,-175.1 -938.16,0.01 -567.51,-440.83 -1367.9,-440.63 -1935.6,0.01 -347.46,-211.87 -807.3,-170.05 -1107.62,130.26 -300.31,300.32 -342.12,760.15 -130.26,1107.61 -303.83,391.34 -397.68,892.7 -282.8,1353.11 -460.29,-115 -961.64,-21.16 -1352.98,282.67 -347.46,-211.85 -807.29,-170.05 -1107.61,130.26 -300.31,300.32 -342.13,760.16 -130.29,1107.64 -440.73,567.61 -440.63,1367.9 0,1935.6 -175.09,287.54 -175.09,650.6 0.01,938.14 -440.84,567.5 -440.64,1367.89 -0.02,1935.6 -211.83,347.48 -170.01,807.32 130.3,1107.64 300.32,300.31 760.15,342.11 1107.61,130.27 391.34,303.82 892.69,397.66 1352.98,282.66 -114.88,460.41 -21.03,961.77 282.79,1353.11 -211.85,347.46 -170.04,807.29 130.27,1107.61 300.32,300.31 760.16,342.13 1107.64,130.3 567.58,440.69 1367.9,440.61 1935.58,-0.04 287.55,175.11 650.82,175.32 938.16,0.03 567.5,440.83 1367.89,440.63 1935.59,-0.01 347.48,211.84 807.33,170.03 1107.65,-130.28 300.31,-300.32 342.11,-760.15 130.25,-1107.62 303.84,-391.33 397.68,-892.68 282.67,-1352.98 460.42,114.89 961.78,21.04 1353.11,-282.8 347.46,211.86 807.3,170.06 1107.62,-130.25 300.31,-300.32 342.12,-760.17 130.26,-1107.62 440.73,-567.61 440.63,-1367.89 0.01,-1935.6 175.11,-287.56 175.1,-650.63 -0.01,-938.18 440.83,-567.51 440.63,-1367.9 0.03,-1935.58 211.84,-347.48 170.02,-807.32 -130.29,-1107.64 -300.32,-300.31 -760.15,-342.12 -1107.61,-130.26zm-2085.37 -2424.07c176.07,176.07 176.09,462.56 0,638.65 -176.06,176.06 -462.58,176.06 -638.64,0 -176.09,-176.09 -176.06,-462.58 0,-638.65 176.08,-176.08 462.55,-176.09 638.64,0zm-2873.78 0c176.09,176.09 176.18,462.47 0.12,638.53 -176.19,176.19 -462.56,176.08 -638.64,0 -176.06,-176.06 -176.2,-462.46 -0.01,-638.65 176.06,-176.07 462.47,-175.94 638.53,0.12zm-3512.18 0c176.09,-176.09 462.45,-176.19 638.64,0 176.06,176.07 175.97,462.44 -0.12,638.53 -176.08,176.08 -462.46,176.18 -638.52,0.12 -176.19,-176.19 -176.09,-462.56 0,-638.65zm-119.37 1104.1c343.68,191.7 785.38,145.58 1077.21,-146.25 291.84,-291.84 337.96,-733.54 146.25,-1077.21 389.7,-277.04 914.32,-277.02 1304.09,-0.1 -191.76,343.77 -145.68,785.47 146.16,1077.31 352.24,352.25 925.01,352.27 1277.28,0 291.84,-291.84 337.91,-733.55 146.16,-1077.31 389.75,-276.94 914.29,-277.04 1303.95,-0.02 -191.67,343.69 -145.45,785.49 146.39,1077.33 291.83,291.83 733.51,337.93 1077.2,146.25 277.05,389.69 277.02,914.31 0,1303.98 -282.58,-157.65 -629.97,-153.26 -907.77,15.99 -567.51,-440.83 -1367.9,-440.63 -1935.6,0.01 -287.52,-175.12 -650.63,-175.12 -938.06,0.07 -567.51,-440.83 -1367.8,-440.73 -1935.6,0 -277.82,-169.25 -624.97,-173.62 -907.75,-15.97 -276.92,-389.77 -276.95,-914.39 0.09,-1304.08zm6505.33 2408.08c-176.19,176.19 -462.46,176.19 -638.65,0 -176.06,-176.06 -176.06,-462.33 0.13,-638.52 176.06,-176.06 462.33,-176.07 638.4,0 176.19,176.19 176.18,462.46 0.12,638.52zm-3512.3 -638.52c176.09,-176.09 462.55,-176.09 638.64,0 176.06,176.07 176.09,462.56 0,638.65 -176.08,176.08 -462.58,176.06 -638.64,0 -176.09,-176.09 -176.09,-462.56 0,-638.65zm-2873.79 0c176.19,-176.19 462.59,-176.06 638.65,0 176.08,176.09 176.19,462.46 0,638.65 -176.06,176.06 -462.43,175.96 -638.52,-0.13 -176.06,-176.06 -176.19,-462.46 -0.13,-638.52zm-2873.53 0c176.07,-176.07 462.46,-176.19 638.65,0 176.06,176.06 175.94,462.46 -0.12,638.52 -176.09,176.09 -462.46,176.18 -638.53,0.12 -176.19,-176.19 -176.09,-462.55 0,-638.64zm-0.13 2873.66c176.08,-176.09 462.6,-176.06 638.66,0 176.08,176.08 176.07,462.57 -0.01,638.65 -176.05,176.05 -462.56,176.08 -638.64,0 -176.07,-176.06 -176.07,-462.6 -0.01,-638.65zm-119.33 1104.11c343.76,191.76 785.47,145.69 1077.3,-146.14 352.26,-352.25 352.26,-925.05 0.01,-1277.29 -291.84,-291.84 -733.55,-337.91 -1077.31,-146.16 -276.94,-389.75 -277.04,-914.29 -0.03,-1303.96 343.7,191.68 785.5,145.46 1077.34,-146.38 291.83,-291.83 337.93,-733.51 146.24,-1077.2 389.7,-277.05 914.32,-277.02 1303.99,0 -157.75,282.47 -153.29,629.94 15.97,907.75 -440.83,567.51 -440.63,1367.89 0,1935.59 -175.19,287.44 -175.19,650.56 0,938 -440.73,567.6 -440.63,1367.89 0,1935.59 -169.25,277.81 -173.52,625.07 -15.96,907.75 -389.7,277.04 -914.3,277.05 -1303.99,0 191.68,-343.69 145.57,-785.37 -146.26,-1077.2 -291.83,-291.83 -733.63,-338.06 -1077.32,-146.39 -277.02,-389.66 -276.94,-914.18 0.02,-1303.96zm2993.12 -1104.11c176.07,-176.06 462.56,-176.09 638.65,0 176.06,176.06 176.06,462.58 0,638.64 -176.09,176.09 -462.58,176.06 -638.65,0 -176.09,-176.09 -176.09,-462.55 0,-638.64zm638.51 3512.3c-176.05,176.06 -462.45,176.19 -638.64,0 -176.06,-176.06 -175.93,-462.46 0.13,-638.51 176.08,-176.09 462.46,-176.2 638.52,-0.14 176.19,176.19 176.08,462.57 -0.01,638.65zm-3512.16 0c-176.09,-176.09 -176.19,-462.46 -0.01,-638.64 176.07,-176.07 462.44,-175.97 638.53,0.12 176.06,176.06 176.19,462.45 0.12,638.52 -176.18,176.19 -462.58,176.06 -638.64,0zm2873.65 2873.65c-176.08,-176.08 -176.19,-462.46 0,-638.64 176.07,-176.07 462.44,-175.96 638.52,0.12 176.09,176.09 176.19,462.46 0.12,638.53 -176.18,176.18 -462.55,176.08 -638.64,-0.01zm2873.65 0.13c-176.18,-176.18 -176.05,-462.58 0.01,-638.63 176.08,-176.09 462.46,-176.2 638.64,-0.02 176.07,176.07 175.96,462.45 -0.13,638.53 -176.05,176.06 -462.45,176.19 -638.52,0.12zm3512.31 -0.12c-176.09,176.09 -462.57,176.07 -638.65,-0.01 -176.05,-176.06 -176.08,-462.55 0.01,-638.64 176.06,-176.06 462.58,-176.06 638.64,0 176.08,176.08 176.07,462.58 0,638.65zm119.36 -1104.09c-343.7,-191.69 -785.37,-145.59 -1077.2,146.24 -291.84,291.84 -338.07,733.64 -146.38,1077.34 -389.67,277 -914.22,276.9 -1303.96,-0.03 191.75,-343.76 145.68,-785.47 -146.16,-1077.31 -352.27,-352.27 -925.04,-352.25 -1277.29,0.01 -291.83,291.83 -337.91,733.53 -146.14,1077.3 -389.8,276.94 -914.4,276.94 -1304.09,-0.1 191.7,-343.67 145.57,-785.37 -146.26,-1077.2 -291.83,-291.83 -733.53,-337.96 -1077.2,-146.27 -277.05,-389.68 -277.04,-914.28 -0.09,-1304.08 282.57,157.85 629.93,153.29 907.74,-15.96 567.61,440.93 1367.89,440.63 1935.6,0 347.58,211.93 807.42,170.12 1107.73,-130.19 352.15,-352.15 352.03,-925.01 -0.12,-1277.16 -118.09,-118.09 -261.63,-193.03 -412.85,-231.84l-0.02 -726.14 -451.43 0.13 0 725.9c-151.14,38.9 -294.78,113.73 -412.86,231.82 -291.84,291.84 -338.04,733.66 -146.26,1077.46 -389.67,277.01 -914.21,276.91 -1303.96,-0.04 191.75,-343.76 145.58,-785.56 -146.28,-1077.42 -291.83,-291.83 -733.54,-337.91 -1077.3,-146.16 -276.94,-389.74 -277.04,-914.28 -0.03,-1303.95 343.69,191.68 785.5,145.45 1077.33,-146.38 352.15,-352.15 352.15,-924.89 0,-1277.04 -291.83,-291.83 -733.64,-338.06 -1077.33,-146.38 -277.01,-389.67 -276.91,-914.21 0.02,-1303.96 343.78,191.75 785.48,145.68 1077.31,-146.15 291.86,-291.86 338.03,-733.66 146.28,-1077.43 389.75,-276.94 914.29,-277.04 1303.93,0 -191.75,343.77 -145.55,785.59 146.29,1077.43 352.14,352.15 925,352.03 1277.16,-0.13 291.83,-291.83 337.95,-733.53 146.26,-1077.2 389.69,-277.04 914.31,-277.02 1304.07,-0.1 -191.75,343.77 -145.67,785.47 146.16,1077.3 291.86,291.86 733.66,338.04 1077.42,146.28 276.93,389.77 276.95,914.39 -0.09,1304.08 -343.77,-191.8 -785.49,-145.7 -1077.33,146.14 -352.15,352.15 -352.15,925.13 0,1277.28 291.84,291.84 733.56,337.94 1077.3,146.16 277.07,389.67 277.05,914.29 0.13,1304.06 -343.77,-191.76 -785.57,-145.58 -1077.43,146.28 -352.15,352.15 -352.15,924.88 0.13,1277.16 291.83,291.84 733.51,337.94 1077.2,146.26 277.01,389.66 277.04,914.28 0,1303.99zm-2993.02 -2408.22c176.09,176.09 176.06,462.58 0,638.65 -176.09,176.09 -462.55,176.09 -638.64,0 -176.09,-176.09 -176.09,-462.56 0,-638.65 176.06,-176.06 462.56,-176.08 638.64,0zm2873.66 -2235.01c-176.09,176.09 -462.56,176.09 -638.65,0 -176.08,-176.08 -176.08,-462.56 0,-638.64 176.09,-176.09 462.56,-176.09 638.65,0 176.09,176.09 176.09,462.55 0,638.64zm-0.12 2873.66c-176.07,176.07 -462.33,176.07 -638.4,0 -176.18,-176.19 -176.18,-462.45 -0.12,-638.51 176.19,-176.19 462.45,-176.19 638.64,-0.01 176.07,176.07 176.07,462.33 -0.12,638.52zm2873.78 0c-176.09,176.09 -462.57,176.08 -638.66,0 -176.05,-176.06 -176.07,-462.56 0.01,-638.64 176.09,-176.09 462.58,-176.06 638.64,-0.01 176.08,176.09 176.1,462.56 0.01,638.65zm0 -2873.78c-176.19,176.19 -462.46,176.19 -638.53,0.12 -176.18,-176.18 -176.18,-462.45 0.01,-638.64 176.06,-176.06 462.33,-176.06 638.52,0.12 176.07,176.07 176.06,462.34 0,638.4zm119.46 -1104c-343.77,-191.76 -785.47,-145.68 -1077.31,146.16 -352.27,352.27 -352.27,925.01 0,1277.28 291.84,291.84 733.54,337.92 1077.31,146.16 276.91,389.76 276.93,914.38 -0.1,1304.09 -343.68,-191.72 -785.37,-145.59 -1077.21,146.25 -291.83,291.83 -337.96,733.53 -146.25,1077.21 -389.7,277.03 -914.32,277 -1304.08,0.09 157.75,-282.67 153.26,-629.96 -15.99,-907.77 440.92,-567.61 440.63,-1367.9 0.02,-1935.58 175.09,-287.54 175.09,-650.64 -0.03,-938.16 440.83,-567.5 440.74,-1367.79 0.01,-1935.6 169.25,-277.81 173.64,-624.99 15.99,-907.77 389.77,-276.92 914.39,-276.95 1304.07,0.1 -191.69,343.67 -145.57,785.37 146.26,1077.2 291.84,291.84 733.54,337.96 1077.21,146.26 277.04,389.69 277.02,914.31 0.1,1304.08zm-119.46 -1769.54c-176.07,176.06 -462.56,176.09 -638.65,0 -176.08,-176.08 -176.06,-462.58 0,-638.64 176.09,-176.09 462.56,-176.09 638.65,0 176.09,176.09 176.08,462.56 0,638.64z"/>
  <path class="fil1" d="M10791.4 15310.59c-747.01,0 -1354.6,-607.59 -1354.6,-1354.77 0,-747.01 607.59,-1354.6 1354.6,-1354.6 747.18,0 1354.77,607.59 1354.77,1354.6 0,747.18 -607.59,1354.77 -1354.77,1354.77z"/>
 </g>
</svg>
